<svg version="1.1" xmlns="http://www.w3.org/2000/svg" viewBox="0 0 512 512" width="512" height="512">
  <path d="M201.5625 107.6875 C199.28359376 112.51878123 198.09168884 116.97051514 199.6640625 122.21484375 C203.2705485 130.08753879 209.52913271 132.92068251 217.1875 136.09765625 C218.1009166 136.48410309 219.01433319 136.87054993 219.95542908 137.26870728 C222.96718199 138.54081501 225.98353266 139.80161695 229 141.0625 C231.11953852 141.9553851 233.23875594 142.84903276 235.35766602 143.7434082 C239.74072585 145.59200991 244.12563319 147.43611966 248.51220703 149.27636719 C254.58353845 151.82375215 260.650161 154.3821447 266.71484375 156.9453125 C268.59936415 157.74170178 270.48388563 158.53808851 272.3684082 159.33447266 C273.75051987 159.91856903 273.75051987 159.91856903 275.16055298 160.51446533 C277.92980098 161.68424779 280.69954705 162.85284228 283.46948242 164.02099609 C302.32951383 171.97512414 321.16629363 179.98377949 340 188 C338.4252125 206.4376963 336.44046522 224.82695672 334.41015625 243.21875 C334.3251199 243.98981016 334.24008356 244.76087032 334.15247035 245.55529594 C333.34825162 252.84734889 332.54259295 260.13924094 331.73275089 267.43067169 C330.70516715 276.68310807 329.68550437 285.93634236 328.67639643 295.19081259 C327.9608006 301.74761058 327.23640603 308.30340037 326.5054521 314.85850382 C326.07099324 318.75675118 325.64035421 322.65532993 325.21919441 326.55503845 C324.82456473 330.20732834 324.41903784 333.85824474 324.00515938 337.50840187 C323.78452544 339.47905108 323.5752887 341.45096595 323.36642456 343.42289734 C323.16263435 345.19241508 323.16263435 345.19241508 322.95472717 346.99768066 C322.84210069 348.01810707 322.7294742 349.03853348 322.61343479 350.0898819 C321.58289048 354.97875631 320.19342654 358.20438231 316 361 C313.78635597 361.26006222 313.78635597 361.26006222 311.15518188 361.27415466 C310.15699936 361.28412979 309.15881683 361.29410492 308.13038635 361.30438232 C306.4892411 361.30537933 306.4892411 361.30537933 304.81494141 361.30639648 C303.66185989 361.31472 302.50877838 361.32304352 301.320755 361.33161926 C297.49765679 361.3557736 293.67472899 361.36449792 289.8515625 361.37109375 C287.86976279 361.37779144 285.88796306 361.38449127 283.90616453 361.39152867 C277.67278757 361.41300333 271.43946506 361.42233509 265.20605469 361.42553711 C258.77854246 361.42917229 252.35150779 361.45906547 245.92414153 361.50094169 C240.4038621 361.53564557 234.88374091 361.55108556 229.36335313 361.55178314 C226.06709687 361.55257597 222.77143727 361.56368201 219.47526932 361.58978081 C215.79770368 361.61658202 212.1214605 361.61190195 208.44384766 361.59936523 C207.35379929 361.61419952 206.26375092 361.62903381 205.14067078 361.64431763 C197.79126783 361.57283392 197.79126783 361.57283392 193.8462677 358.71687317 C192.14055006 356.20682628 191.32458403 354.88742596 191.01586914 351.93066406 C190.92027206 351.12304626 190.82467499 350.31542847 190.72618103 349.4833374 C190.64251785 348.58649231 190.55885468 347.68964722 190.47265625 346.765625 C190.36284927 345.78611877 190.2530423 344.80661255 190.13990784 343.79742432 C189.88722229 341.51938888 189.64488646 339.240192 189.41046143 336.96020508 C188.95100201 332.52725861 188.45827362 328.09868938 187.96044922 323.66992188 C187.17720491 316.67665052 186.40175707 309.68257286 185.63476562 302.6875 C185.53658224 301.79288811 185.43839886 300.89827621 185.33724022 299.97655487 C184.83174522 295.36560437 184.32934736 290.75433908 183.83129883 286.14257812 C183.34209701 281.61546186 182.84496539 277.08927732 182.34257698 272.56360626 C182.15419847 270.85268926 181.96881761 269.14143939 181.78652763 267.42986298 C181.53373235 265.05879168 181.27086947 262.68904098 181.00561523 260.31933594 C180.93336227 259.61819672 180.86110931 258.9170575 180.78666687 258.19467163 C180.38843223 254.73546123 179.97544083 252.96316124 178 250 C177.28972656 250.32613281 176.57945312 250.65226563 175.84765625 250.98828125 C172.83187659 252.05973109 170.62198143 252.23621947 167.4375 252.1875 C166.50808594 252.18105469 165.57867187 252.17460937 164.62109375 252.16796875 C162.26379761 252.01690506 160.27024431 251.60521737 158 251 C158.60599413 263.63731581 159.75577205 276.16863751 161.14453125 288.7421875 C161.2489472 289.69476566 161.35336315 290.64734383 161.46094322 291.62878799 C162.0118834 296.65410874 162.56779964 301.67884778 163.12817383 306.703125 C163.70191095 311.85573155 164.25873082 317.01002158 164.81177235 322.16488457 C165.24440706 326.16901094 165.68936161 330.17170085 166.13760948 334.1741066 C166.3482419 336.07361309 166.55437098 337.97362511 166.75568581 339.87414169 C168.65973042 359.59620254 168.65973042 359.59620254 179 376 C188.3280784 382.92282182 196.49014501 384.29987613 207.83520508 384.29052734 C209.01009995 384.29724457 210.18499481 384.30396179 211.39549255 384.31088257 C215.27021543 384.329843 219.1447649 384.3337858 223.01953125 384.3359375 C224.36000837 384.33878659 225.70048481 384.34197888 227.04096031 384.34550858 C234.06158533 384.36398327 241.08213468 384.37218245 248.1027832 384.37060547 C254.62450414 384.36940491 261.1458937 384.39049671 267.66753083 384.4220928 C273.28563185 384.4483316 278.90362513 384.45896959 284.52178687 384.45769465 C287.86895866 384.45718721 291.21560191 384.4646162 294.56275368 384.48405075 C298.30098316 384.50372418 302.03836719 384.49786623 305.77661133 384.48583984 C306.87045135 384.49707886 307.96429138 384.50831787 309.09127808 384.51989746 C319.59623661 384.43435144 328.2536647 381.19302563 336 374 C344.11211823 365.21187192 344.77101525 353.65768281 345.99291992 342.29077148 C346.16985614 340.71301446 346.34766001 339.13535454 346.52626038 337.55778503 C347.00593373 333.29906676 347.47353792 329.03910176 347.93890548 324.77879977 C348.42830625 320.31773248 348.92890864 315.8579225 349.42829895 311.39796448 C350.37106344 302.9630432 351.30382079 294.52704701 352.23294383 286.09061342 C353.29171344 276.48149636 354.36170026 266.87363873 355.43260801 257.26586807 C357.63417918 237.51194993 359.82173413 217.75650069 362 198 C363.41882107 198.46471668 364.83693057 198.93160615 366.25474548 199.39938354 C367.04453261 199.65914412 367.83431974 199.91890469 368.64803982 200.18653679 C372.11879137 201.38695197 375.45970766 202.83569537 378.81640625 204.3203125 C380.25439128 204.94439307 381.69254749 205.56807933 383.13085938 206.19140625 C385.35314425 207.15915565 387.57390205 208.13002734 389.79174805 209.10791016 C391.96269953 210.06304263 394.13900676 211.00499027 396.31640625 211.9453125 C396.96871719 212.23697296 397.62102814 212.52863342 398.29310608 212.82913208 C404.0978798 215.31771939 409.46714706 216.77273479 415.6875 214.875 C419.97817382 212.4463167 422.91394122 209.96524923 425.3125 205.625 C426.50622139 201.06715467 426.4855046 197.39939563 424.9375 192.9375 C419.31998715 184.42062568 410.76845476 181.43974234 401.6875 177.8125 C400.31574508 177.25312871 398.94457602 176.69231872 397.57397461 176.13012695 C394.77174967 174.9816882 391.9672515 173.83908404 389.16113281 172.70019531 C382.7663801 170.09691283 376.41607951 167.38941227 370.0625 164.6875 C367.90765245 163.77450266 365.7527148 162.86171793 363.59765625 161.94921875 C362.06507171 161.29955573 360.53250578 160.6498488 359 160 C359.31723022 159.04879272 359.31723022 159.04879272 359.64086914 158.07836914 C362.5275272 149.0354277 364.08754171 139.15613839 360.4375 130.0625 C353.95165654 117.93579972 343.73837949 112.54045099 331.375 107.75 C330.25609375 107.30398437 329.1371875 106.85796875 327.984375 106.3984375 C316.99342474 102.070259 308.26532892 100.4353025 297 105 C289.18239766 109.03448609 283.5046951 114.8821481 280 123 C280 123.99 280 124.98 280 126 C267.79183739 121.48541618 255.85135619 116.33909783 243.875 111.25 C240.78374121 109.93775487 237.69221894 108.6261405 234.60012817 107.31585693 C232.68869976 106.50576138 230.77777023 105.69448743 228.86740112 104.88189697 C228.00865387 104.51771667 227.14990662 104.15353638 226.26513672 103.77832031 C225.51158905 103.45808899 224.75804138 103.13785767 223.98165894 102.80792236 C215.3238761 99.27814423 207.81256194 100.79640606 201.5625 107.6875 Z M155.875 143.625 C152.23722599 146.99079091 148.55891969 150.21879534 144.6875 153.3125 C139.63828383 157.38212501 134.9275427 161.73814461 130.21411133 166.18481445 C125.75082941 170.37087389 121.13620061 174.24052476 116.3046875 178 C113.75921088 180.20895599 111.78583394 182.12899425 110 185 C109.88238142 189.07922625 110.64831571 190.59715094 113.3359375 193.67578125 C114.33567279 194.56977048 115.34961074 195.44805551 116.375 196.3125 C116.91519775 196.7876001 117.45539551 197.2627002 118.01196289 197.75219727 C122.29632816 201.490927 126.72196896 205.05767 131.15234375 208.62109375 C134.37263366 211.31129479 137.43812901 214.13264787 140.5 217 C145.39193275 221.57894179 150.39147645 225.91099789 155.63671875 230.0859375 C157.60042014 231.67637334 159.41564185 233.32978175 161.25 235.0625 C163.95679577 237.26532813 163.95679577 237.26532813 167.6875 237.625 C171.03447425 237.33771498 171.03447425 237.33771498 172.6953125 235.13671875 C174.62436587 230.49890482 174.31756697 226.15339015 174.1875 221.1875 C174.17396484 220.20845703 174.16042969 219.22941406 174.14648438 218.22070312 C174.11125312 215.81323375 174.06199265 213.40690436 174 211 C198.90674567 214.53273678 222.25072541 219.03833423 239.5 238.875 C242.69068205 245.52225427 243.90584293 252.64226557 241.8828125 259.8125 C237.08409491 271.70312765 227.35588507 278.06321178 216.66015625 284.203125 C213.73244588 285.78743883 213.73244588 285.78743883 213 289 C213.66 289.99 214.32 290.98 215 292 C221.52381686 291.53028519 226.46254077 289.80355959 232.3125 286.9375 C233.14773193 286.53337891 233.98296387 286.12925781 234.84350586 285.71289062 C241.4373021 282.44190699 247.34378966 278.7318135 253 274 C254.28777344 272.95392578 254.28777344 272.95392578 255.6015625 271.88671875 C266.25767626 262.824193 275.26375281 251.20083612 276.44140625 236.81640625 C277.05136679 223.17255201 273.50270038 212.74124318 265 202 C264.56171875 201.39800781 264.1234375 200.79601562 263.671875 200.17578125 C244.57474901 175.49907326 207.82890554 166.29831974 178.6015625 162.4453125 C177.41304688 162.29835937 176.22453125 162.15140625 175 162 C174.98541748 161.38479492 174.97083496 160.76958984 174.95581055 160.13574219 C174.88119423 157.33987146 174.7845802 154.54517713 174.6875 151.75 C174.66494141 150.78191406 174.64238281 149.81382812 174.61914062 148.81640625 C174.58369141 147.88183594 174.54824219 146.94726562 174.51171875 145.984375 C174.48553467 145.12553711 174.45935059 144.26669922 174.43237305 143.38183594 C173.91333689 140.5225944 172.96091083 139.11935929 171 137 C164.52150397 134.44269894 160.37753464 139.3912734 155.875 143.625 Z M296.16984367 217.26786041 C292.34768679 222.92717147 292.5420445 232.03765036 291.85498047 238.69726562 C291.75715271 239.60925217 291.65932495 240.52123871 291.55853271 241.46086121 C291.24004644 244.44217947 290.92834816 247.42415895 290.6171875 250.40625 C290.39610143 252.49795208 290.17475301 254.58962645 289.95315552 256.68127441 C289.4912471 261.05168467 289.03275717 265.4224366 288.57666016 269.79345703 C287.9938839 275.37551346 287.40219749 280.95658315 286.80788994 286.53742218 C286.34946205 290.85232788 285.89598172 295.16774285 285.44394302 299.48332214 C285.22781969 301.54062797 285.01014006 303.59777096 284.7908287 305.65473938 C284.48424852 308.53690186 284.18441196 311.41969245 283.88623047 314.30273438 C283.79586517 315.13939133 283.70549988 315.97604828 283.61239624 316.83805847 C282.29760384 327.39723989 282.29760384 327.39723989 284.5625 337.5 C287.66330997 340.68031792 289.59338525 341.4771813 294 342 C298.67502482 340.59749256 301.62161308 339.28629145 304 335 C304.74689375 331.7513348 305.07565767 328.47198489 305.42578125 325.16015625 C305.54512527 324.12319107 305.6644693 323.08622589 305.78742981 322.01783752 C306.20515852 318.34661913 306.6025632 314.6734686 307 311 C307.24195535 308.81731105 307.48566445 306.63482148 307.72932243 304.45232201 C308.72919239 295.48541655 309.69330179 286.51493182 310.64428711 277.54272461 C311.09794048 273.26637294 311.56108236 268.99110218 312.02622509 264.71598721 C312.38928584 261.36270814 312.74523595 258.00870016 313.09935951 254.65446663 C313.26695492 253.07845075 313.43710999 251.50270445 313.6101284 249.9272747 C314.4553979 242.20980347 315.16967599 234.49956467 315.3527832 226.73461914 C315.40013359 224.96677818 315.40013359 224.96677818 315.44844055 223.16322327 C314.90647053 219.34025902 313.67705371 217.72623634 311 215 C305.83393949 212.41696975 300.29719794 213.31720009 296.16984367 217.26786041 Z M259.3125 287.75 C258.08011075 288.64157077 256.84704366 289.53220539 255.61328125 290.421875 C255.06454346 290.81987305 254.51580566 291.21787109 253.95043945 291.62792969 C252 293 252 293 248.81958008 294.62817383 C245.61445983 296.81910344 245.61445983 296.81910344 245.25537109 300.86303711 C245.22935357 302.41759995 245.23741844 303.97298048 245.2734375 305.52734375 C245.27244049 306.3532753 245.27144348 307.17920685 245.27041626 308.03016663 C245.27509037 309.7743595 245.29450565 311.51856672 245.32763672 313.26245117 C245.37478842 315.92555035 245.36876487 318.58463689 245.35546875 321.24804688 C245.36662505 322.94533627 245.38084657 324.64260885 245.3984375 326.33984375 C245.39661469 327.13269272 245.39479187 327.92554169 245.39291382 328.74241638 C245.52044358 333.74285634 246.28986281 336.34528359 250 340 C252.7039156 342.05124631 253.97766328 342.00081224 257.4375 341.875 C261.29943186 340.92645533 263.17092464 339.74586726 266 337 C267.25274723 334.49450555 267.12029624 332.80264368 267.11352539 329.99951172 C267.11344986 328.95858368 267.11337433 327.91765564 267.11329651 326.84518433 C267.10813522 325.71807037 267.10297394 324.59095642 267.09765625 323.4296875 C267.0962413 322.27832306 267.09482635 321.12695862 267.09336853 319.94070435 C267.08775716 316.25211014 267.0752027 312.56357595 267.0625 308.875 C267.05748647 306.37890712 267.05292331 303.8828133 267.04882812 301.38671875 C267.03778403 295.25779191 267.0210348 289.12890024 267 283 C264.4682437 283 261.39238231 286.2404422 259.3125 287.75 Z M206 305 C206.41648049 312.72680911 206.95624357 320.43384711 207.8125 328.125 C207.94269531 329.32382812 208.07289063 330.52265625 208.20703125 331.7578125 C209.11305515 335.46224519 210.33833321 337.29933443 213 340 C217.24791574 341.92358449 219.23792497 342.21592126 223.75 340.9375 C227.3870764 338.76924291 228.5934141 337.97153667 230 334 C231.03149825 324.74978987 229.20419828 315.17126013 228 306 C226.65228516 306.24169922 226.65228516 306.24169922 225.27734375 306.48828125 C222.64498578 306.89929304 220.216654 307.16314996 217.5625 307.1875 C216.86253906 307.20167969 216.16257813 307.21585937 215.44140625 307.23046875 C212.15282553 306.92002673 209.1495489 305.96820883 206 305 Z M314 124 C317.6554549 125.16977465 321.12324877 126.6854921 324.625 128.25 C325.553125 128.64574219 326.48125 129.04148438 327.4375 129.44921875 C336.45461433 133.38936183 336.45461433 133.38936183 340 137 C341.31058108 142.41706845 341.21657159 145.78453742 339 151 C334.05296417 150.39621089 329.77819191 148.85955149 325.23046875 146.91015625 C324.50886063 146.60556992 323.7872525 146.30098358 323.04377747 145.98716736 C321.52887438 145.34565997 320.01535656 144.70087241 318.50317383 144.05297852 C316.18133591 143.05986345 313.85380317 142.0811009 311.52539062 141.10351562 C310.05172236 140.47741145 308.57840219 139.85048718 307.10546875 139.22265625 C306.40761765 138.92988297 305.70976654 138.63710968 304.99076843 138.33546448 C300.11495719 136.22991439 300.11495719 136.22991439 299 134 C301.86901744 126.66806655 305.96498732 122.78810759 314 124 Z" fill="#000000"/>
</svg>